<?xml version="1.0" standalone="no"?>
<!DOCTYPE svg PUBLIC "-//W3C//DTD SVG 20010904//EN"
 "http://www.w3.org/TR/2001/REC-SVG-20010904/DTD/svg10.dtd">
<svg version="1.0" xmlns="http://www.w3.org/2000/svg"
 width="700.000000pt" height="700.000000pt" viewBox="0 0 700.000000 700.000000"
 preserveAspectRatio="xMidYMid meet">
<metadata>
Created by potrace 1.14, written by Peter Selinger 2001-2017
</metadata>
<g transform="translate(0.000000,700.000000) scale(0.100000,-0.100000)"
fill="#000000" stroke="none">
<path d="M3397 6744 c-1 -1 -38 -5 -81 -8 -43 -4 -82 -8 -85 -10 -3 -2 -24 -7
-46 -10 -58 -9 -174 -43 -240 -70 -172 -70 -201 -167 -150 -506 27 -178 105
-388 205 -550 47 -77 61 -95 119 -162 19 -21 32 -40 30 -42 -2 -2 -35 -7 -73
-11 -58 -5 -192 -29 -281 -49 -197 -43 -449 -141 -660 -255 -86 -46 -310 -185
-325 -201 -3 -3 -32 -25 -65 -50 -55 -41 -68 -51 -115 -90 -156 -131 -281
-256 -400 -397 -42 -51 -105 -132 -139 -180 -33 -49 -65 -93 -69 -98 -21 -26
-125 -210 -175 -311 -121 -240 -192 -457 -243 -739 -32 -180 -36 -452 -9 -643
2 -18 7 -52 10 -75 3 -23 11 -60 17 -82 5 -22 11 -47 13 -55 2 -8 14 -60 28
-115 14 -55 28 -122 32 -150 4 -27 10 -59 12 -70 3 -11 6 -117 8 -235 3 -246
15 -318 75 -446 58 -125 112 -198 254 -339 72 -71 141 -137 153 -147 43 -33
154 -96 205 -116 29 -12 67 -27 83 -33 17 -7 32 -13 35 -14 9 -2 84 -17 110
-22 14 -3 103 -7 199 -9 120 -3 178 -8 189 -16 13 -11 14 -11 7 1 -5 9 -4 12
2 8 6 -4 35 -9 64 -13 30 -3 58 -9 63 -12 5 -2 23 -6 40 -8 17 -2 42 -5 56 -8
14 -3 53 -11 87 -17 35 -6 60 -15 58 -19 -3 -5 5 -6 17 -2 16 4 19 2 13 -9 -6
-11 -5 -11 5 -2 8 7 21 8 34 3 11 -4 24 -8 29 -9 4 0 8 -1 10 -2 1 -1 13 -2
27 -3 14 -2 37 -5 50 -9 47 -11 185 -21 290 -22 58 0 108 -4 112 -10 5 -6 8
-6 8 1 0 14 33 14 42 0 6 -8 8 -8 8 1 0 6 8 10 17 9 10 -2 32 0 50 5 22 5 33
3 33 -5 0 -7 3 -7 8 -1 4 6 18 11 32 13 14 2 36 6 50 8 14 3 44 7 68 10 23 3
54 9 68 14 16 6 23 6 19 0 -3 -5 7 -3 22 5 15 8 35 15 43 15 8 0 67 16 130 36
63 19 120 36 125 38 6 1 28 10 50 20 22 10 50 19 62 19 11 1 19 5 16 10 -4 7
1 9 30 11 6 1 14 3 17 6 3 3 46 25 95 49 236 117 448 257 675 446 76 63 308
305 383 399 78 99 216 294 226 320 2 6 12 23 23 38 28 41 152 293 187 381 63
159 126 374 144 492 6 37 15 88 23 135 3 19 8 130 9 245 3 231 -11 364 -61
559 -14 55 -27 110 -30 121 -2 11 -9 44 -15 74 -6 30 -13 66 -16 80 -2 14 -6
127 -9 250 -3 154 -9 245 -20 290 -8 36 -17 74 -19 84 -3 14 -41 94 -93 198
-9 19 319 139 451 165 10 2 26 6 35 8 9 3 84 17 165 31 81 14 161 32 178 40
71 37 129 129 130 207 3 173 -80 324 -208 379 -137 58 -365 14 -638 -124 -152
-77 -356 -211 -447 -295 -46 -42 -50 -31 -53 158 -2 96 -6 191 -10 210 -64
319 -196 560 -436 797 -163 160 -293 255 -469 343 -88 44 -251 101 -330 116
-25 4 -47 8 -50 9 -46 11 -294 27 -303 19z"/>
<path d="M4026 562 c-3 -5 1 -9 9 -9 8 0 12 4 9 9 -3 4 -7 8 -9 8 -2 0 -6 -4
-9 -8z"/>
<path d="M3745 440 c-3 -6 1 -7 9 -4 18 7 21 14 7 14 -6 0 -13 -4 -16 -10z"/>
<path d="M4527 399 c7 -7 15 -10 18 -7 3 3 -2 9 -12 12 -14 6 -15 5 -6 -5z"/>
<path d="M3555 389 c-4 -6 -5 -12 -2 -15 2 -3 7 2 10 11 7 17 1 20 -8 4z"/>
<path d="M4765 320 c-3 -6 1 -7 9 -4 18 7 21 14 7 14 -6 0 -13 -4 -16 -10z"/>
<path d="M2154 289 c-3 -6 -2 -15 3 -20 5 -5 9 -1 9 11 0 23 -2 24 -12 9z"/>
<path d="M2950 281 c0 -6 4 -13 10 -16 6 -3 7 1 4 9 -7 18 -14 21 -14 7z"/>
<path d="M4246 278 c3 -5 10 -6 15 -3 13 9 11 12 -6 12 -8 0 -12 -4 -9 -9z"/>
<path d="M1716 255 c-9 -26 -7 -32 5 -12 6 10 9 21 6 23 -2 3 -7 -2 -11 -11z"/>
<path d="M4640 260 c-9 -6 -10 -10 -3 -10 6 0 15 5 18 10 8 12 4 12 -15 0z"/>
<path d="M4260 240 c-9 -6 -10 -10 -3 -10 6 0 15 5 18 10 8 12 4 12 -15 0z"/>
</g>
</svg>
